<?xml version="1.0" ?><!DOCTYPE svg  PUBLIC '-//W3C//DTD SVG 1.1//EN'  'http://www.w3.org/Graphics/SVG/1.1/DTD/svg11.dtd'><svg height="6.82666in" style="shape-rendering:geometricPrecision; text-rendering:geometricPrecision; image-rendering:optimizeQuality; fill-rule:evenodd; clip-rule:evenodd" viewBox="0 0 6.82666 6.82666" width="6.82666in" xml:space="preserve" xmlns="http://www.w3.org/2000/svg" xmlns:xlink="http://www.w3.org/1999/xlink"><defs><style type="text/css">
   <![CDATA[
    .fil1 {fill:none}
    .fil0 {fill:black}
   ]]>
  </style></defs><g id="Layer_x0020_1"><path class="fil0" d="M2.06293 1.21828l2.7008 0 0.04 0 0 0.04 0 1.02 0 0.04 -0.04 0 -2.7008 0 -0.04 0 0 -0.04 0 -1.02 0 -0.04 0.04 0zm2.17245 1.59102l0.399677 0c0.0309173,0 0.0590433,0.0126654 0.0794488,0.033063l0.000153543 0.000153543c0.0203976,0.0204055 0.033063,0.0485315 0.033063,0.0794488l0 0.399677c0,0.0308386 -0.0126535,0.0589724 -0.0330669,0.0794488l-7.87402e-005 7.48031e-005 -7.48031e-005 7.87402e-005c-0.0204724,0.0204094 -0.0486024,0.0330669 -0.0794449,0.0330669l-0.399677 0c-0.0308386,0 -0.0589724,-0.0126535 -0.0794488,-0.0330669l-7.48031e-005 -7.87402e-005 -7.87402e-005 -7.48031e-005c-0.0204134,-0.0204764 -0.0330669,-0.0486102 -0.0330669,-0.0794488l0 -0.399677c0,-0.0310236 0.0126614,-0.0591969 0.0330669,-0.0796024 0.0203976,-0.0203976 0.0485827,-0.033063 0.0796024,-0.033063zm0 1.024l0.399677 0c0.0310236,0 0.0591969,0.0126614 0.0796024,0.0330669 0.0203976,0.0203976 0.033063,0.0485748 0.033063,0.0795984l0 0.399677c0,0.0308425 -0.0126575,0.0589724 -0.0330669,0.0794449l-7.87402e-005 7.48031e-005 -7.48031e-005 7.87402e-005c-0.0204724,0.0204094 -0.0486024,0.0330669 -0.0794449,0.0330669l-0.399677 0c-0.0308386,0 -0.0589724,-0.0126535 -0.0794488,-0.0330669l-7.48031e-005 -7.87402e-005 -7.87402e-005 -7.48031e-005c-0.0204094,-0.0204724 -0.0330669,-0.0486024 -0.0330669,-0.0794449l0 -0.399677c0,-0.0310236 0.0126614,-0.0591969 0.0330669,-0.0796024 0.0203976,-0.0203976 0.0485827,-0.033063 0.0796024,-0.033063zm0 1.024l0.399677 0c0.0309173,0 0.0590433,0.0126654 0.0794488,0.033063l0.000153543 0c0.0203976,0.0203976 0.033063,0.0485827 0.033063,0.0796024l0 0.399677c0,0.0308425 -0.0126575,0.0589724 -0.0330669,0.0794449l-7.87402e-005 7.48031e-005 -7.48031e-005 7.87402e-005c-0.0204724,0.0204094 -0.0486024,0.0330669 -0.0794449,0.0330669l-0.399677 0c-0.0308386,0 -0.0589724,-0.0126535 -0.0794488,-0.0330669l-7.48031e-005 -7.87402e-005 -7.87402e-005 -7.48031e-005c-0.0204094,-0.0204724 -0.0330669,-0.0486024 -0.0330669,-0.0794449l0 -0.399677c0,-0.0310197 0.0126654,-0.0592047 0.033063,-0.0796024l0.000153543 0c0.0204055,-0.0203976 0.0485315,-0.033063 0.0794528,-0.033063zm0.937949 -4.00396l-3.52 0 0 5.12 3.52 0 0 -5.12zm-1.56017 2.97996c0.0310236,0 0.0591969,0.0126614 0.0796024,0.0330669 0.0203976,0.0203976 0.033063,0.0485748 0.033063,0.0795984l0 0.399677c0,0.0308425 -0.0126575,0.0589724 -0.0330669,0.0794449l-7.87402e-005 7.48031e-005 -7.48031e-005 7.87402e-005c-0.0204724,0.0204094 -0.0486024,0.0330669 -0.0794449,0.0330669l-0.399677 0c-0.0308425,0 -0.0589724,-0.0126575 -0.0794449,-0.0330669l-7.48031e-005 -7.87402e-005 -7.87402e-005 -7.48031e-005c-0.0204094,-0.0204724 -0.0330669,-0.0486024 -0.0330669,-0.0794449l0 -0.399677c0,-0.0310236 0.0126654,-0.0592008 0.033063,-0.0795984 0.0204055,-0.0204055 0.0485787,-0.0330669 0.0796024,-0.0330669l0.399677 0zm-0.399677 1.024l0.399677 0c0.0309173,0 0.0590433,0.0126654 0.0794488,0.033063l0.000153543 0c0.0203976,0.0203976 0.033063,0.0485827 0.033063,0.0796024l0 0.399677c0,0.0308425 -0.0126575,0.0589724 -0.0330669,0.0794449l-7.87402e-005 7.48031e-005 -7.48031e-005 7.87402e-005c-0.0204724,0.0204094 -0.0486024,0.0330669 -0.0794449,0.0330669l-0.399677 0c-0.0308425,0 -0.0589724,-0.0126575 -0.0794449,-0.0330669l-7.48031e-005 -7.87402e-005 -7.87402e-005 -7.48031e-005c-0.0204094,-0.0204724 -0.0330669,-0.0486024 -0.0330669,-0.0794449l0 -0.399677c0,-0.0310197 0.0126654,-0.0592047 0.033063,-0.0796024l0.000153543 0c0.0204055,-0.0203976 0.0485315,-0.033063 0.0794488,-0.033063zm0 -2.04799l0.399677 0c0.0309173,0 0.0590433,0.0126654 0.0794488,0.033063l0.000153543 0.000153543c0.0203976,0.0204055 0.033063,0.0485315 0.033063,0.0794488l0 0.399677c0,0.0308386 -0.0126535,0.0589724 -0.0330669,0.0794488l-7.87402e-005 7.48031e-005 -7.48031e-005 7.87402e-005c-0.0204724,0.0204094 -0.0486024,0.0330669 -0.0794449,0.0330669l-0.399677 0c-0.0308425,0 -0.0589724,-0.0126575 -0.0794449,-0.0330669l-7.48031e-005 -7.87402e-005 -7.87402e-005 -7.48031e-005c-0.0204134,-0.0204764 -0.0330669,-0.0486102 -0.0330669,-0.0794488l0 -0.399677c0,-0.0309173 0.0126654,-0.0590433 0.033063,-0.0794488l0.000153543 -0.000153543c0.0204055,-0.0203976 0.0485315,-0.033063 0.0794488,-0.033063zm-0.509551 1.13666l0 0.399677c0,0.0310236 -0.0126614,0.0591969 -0.0330669,0.0796024 -0.0203976,0.0203976 -0.0485748,0.033063 -0.0795984,0.033063l-0.399677 0c-0.0308425,0 -0.0589724,-0.0126575 -0.0794449,-0.0330669l-7.48031e-005 -7.87402e-005 -7.87402e-005 -7.48031e-005c-0.0204094,-0.0204724 -0.0330669,-0.0486024 -0.0330669,-0.0794449l0 -0.399677c0,-0.0310236 0.0126654,-0.0592008 0.033063,-0.0795984 0.0204055,-0.0204055 0.0485787,-0.0330669 0.0796024,-0.0330669l0.399677 0c0.0310197,0 0.0592047,0.0126654 0.0796024,0.033063l0 0.000153543c0.0203976,0.0204055 0.033063,0.0485315 0.033063,0.0794488zm-0.512343 0.911331l0.399677 0c0.0310197,0 0.0592047,0.0126654 0.0796024,0.033063 0.0203976,0.0203976 0.033063,0.0485827 0.033063,0.0796024l0 0.399677c0,0.0310236 -0.0126614,0.0591969 -0.0330669,0.0796024 -0.0203976,0.0203976 -0.0485748,0.033063 -0.0795984,0.033063l-0.399677 0c-0.0308425,0 -0.0589724,-0.0126575 -0.0794449,-0.0330669l-7.48031e-005 -7.87402e-005 -7.87402e-005 -7.48031e-005c-0.0204094,-0.0204724 -0.0330669,-0.0486024 -0.0330669,-0.0794449l0 -0.399677c0,-0.0310197 0.0126654,-0.0592047 0.033063,-0.0796024l0.000153543 0c0.0204055,-0.0203976 0.0485315,-0.033063 0.0794488,-0.033063zm0 -2.04799l0.399677 0c0.0310197,0 0.0592047,0.0126654 0.0796024,0.033063l0 0.000153543c0.0203976,0.0204055 0.033063,0.0485315 0.033063,0.0794488l0 0.399677c0,0.0308386 -0.0126535,0.0589724 -0.0330669,0.0794488l-7.87402e-005 7.48031e-005 -7.48031e-005 7.87402e-005c-0.0204764,0.0204134 -0.0486024,0.0330669 -0.0794449,0.0330669l-0.399677 0c-0.0308425,0 -0.0589724,-0.0126575 -0.0794449,-0.0330669l-7.48031e-005 -7.87402e-005 -7.87402e-005 -7.48031e-005c-0.0204134,-0.0204764 -0.0330669,-0.0486102 -0.0330669,-0.0794488l0 -0.399677c0,-0.0309173 0.0126654,-0.0590433 0.033063,-0.0794488l0.000153543 -0.000153543c0.0204055,-0.0203976 0.0485315,-0.033063 0.0794488,-0.033063z"/></g><rect class="fil1" height="6.82666" width="6.82666"/></svg>